# AST/ASF file generated using VICON BodyLanguage
# -----------------------------------------------
:version 1.10
:name VICON
:units
  mass 1.0
  length 0.45
  angle deg
:documentation
   .ast/.asf automatically generated from VICON data using
   VICON BodyBuilder and BodyLanguage model FoxedUp or BRILLIANT.MOD
:root
   order TX TY TZ RX RY RZ
   axis XYZ
   position 0 0 0  
   orientation 0 0 0 
:bonedata
  begin
     id 1 
     name lhipjoint
     direction 0.671379 -0.66392 0.329334 
     length 2.38647 
     axis 0 0 0  XYZ
  end
  begin
     id 2 
     name lfemur
     direction 0.34202 -0.939693 0  
     length 6.48179  
     axis 0 0 20  XYZ
    dof rx ry rz
    limits (-160.0 20.0)
           (-70.0 70.0)
           (-60.0 70.0)
  end
  begin
     id 3 
     name ltibia
     direction 0.34202 -0.939693 0   
     length 6.86524   
     axis 0 0 20   XYZ
    dof rx
    limits (-10.0 170.0)
  end
  begin
     id 4 
     name lfoot
     direction 0.204886 -0.562919 0.800715   
     length 1.73031   
     axis -90 7.62852e-016 20   XYZ
    dof rx rz
    limits (-45.0 90.0)
           (-70.0 20.0)
  end
  begin
     id 5 
     name ltoes
     direction 1.53548e-011 -4.21841e-011 1   
     length 0.828161   
     axis -90 7.62852e-016 20   XYZ
    dof rx
    limits (-90.0 20.0)
  end
  begin
     id 6 
     name rhipjoint
     direction -0.662732 -0.670855 0.332775   
     length 2.3618  
     axis 0 0 0  XYZ 
  end
  begin
     id 7 
     name rfemur
     direction -0.34202 -0.939693 0   
     length 6.3025   
     axis 0 0 -20   XYZ
    dof rx ry rz
    limits (-160.0 20.0)
           (-70.0 70.0)
           (-70.0 60.0)
  end
  begin
     id 8 
     name rtibia
     direction -0.34202 -0.939693 0   
     length 6.8732   
     axis 0 0 -20   XYZ
    dof rx
    limits (-10.0 170.0)
 end
 begin
     id 9 
     name rfoot
     direction -0.173856 -0.477665 0.861168   
     length 1.54784  
     axis -90 -7.62852e-016 -20   XYZ
    dof rx rz
    limits (-45.0 90.0)
           (-20.0 70.0)
  end
  begin
     id 10 
     name rtoes
     direction -1.53562e-011 -4.21802e-011 1   
     length 0.759618   
     axis -90 -7.62852e-016 -20   XYZ
    dof rx
    limits (-90.0 20.0)
  end
  begin
     id 11 
     name lowerback
     direction -0.0278357 0.999497 -0.0151789   
     length 1.97203   
     axis 0 0 0   XYZ
    dof rx ry rz
    limits (-20.0 45.0)
           (-30.0 30.0)
           (-30.0 30.0)
  end
  begin
     id 12 
     name upperback
     direction -0.00360622 0.997542 0.0699804   
     length 1.94709   
     axis 0 0 0   XYZ
    dof rx ry rz
    limits (-20.0 45.0)
           (-30.0 30.0)
           (-30.0 30.0)
  end
  begin
     id 13 
     name thorax
     direction 0.00907706 0.997048 0.0762461   
     length 1.95722   
     axis 0 0 0   XYZ
    dof rx ry rz
    limits (-20.0 45.0)
           (-30.0 30.0)
           (-30.0 30.0)
  end
  begin
     id 14 
     name lowerneck
     direction -0.0481835 0.99872 -0.0153927   
     length 1.63078   
     axis 0 0 0   XYZ
    dof rx ry rz
    limits (-20.0 45.0)
           (-30.0 30.0)
           (-30.0 30.0)
  end
  begin
     id 15 
     name upperneck
     direction 0.0859716 0.979226 -0.183644   
     length 1.62591   
     axis 0 0 0   XYZ
    dof rx ry rz
    limits (-20.0 45.0)
           (-30.0 30.0)
           (-30.0 30.0)
  end
  begin
     id 16
     name head
     direction 0.0324821 0.997629 -0.0606773  
     length 1.64811  
     axis 0 0 0   XYZ
    dof rx ry rz
    limits (-20.0 45.0)
           (-30.0 30.0)
           (-30.0 30.0)
  end
  begin
     id 17 
     name lclavicle
     direction 0.939609 0.311019 0.142835  
     length 3.70647  
     axis 0 0 0   XYZ
    dof ry rz
    limits (-20.0 10.0)
           (0.0 20.0)
  end
  begin
     id 18 
     name lhumerus
     direction 1 -4.48963e-011 -1.59838e-027   
     length 4.59207   
     axis 180 -30 -90   XYZ
    dof rx ry rz
    limits (-60.0 90.0)
           (-90.0 90.0)
           (-90.0 90.0)
  end
  begin
     id 19
     name lradius
     direction 1 -4.48957e-011 -1.3483e-026   
     length 2.98109   
     axis 180 -30 -90   XYZ
    dof rx
    limits (-10.0 170.0)
  end
  begin
     id 20
     name lwrist
     direction 1 -4.48954e-011 -3.11579e-026   
     length 1.49055   
     axis 2.00652e-014 90 90   XYZ
    dof ry
    limits (-180.0 0.0)
 end
  begin
     id 21 
     name lhand
     direction 1 -4.4911e-011 -6.23158e-026   
     length 0.480203   
     axis 3.97628e-014 90 90   XYZ
    dof rx rz
    limits (-90.0 90.0)
           (-45.0 45.0)
  end
  begin
     id 22 
     name lfingers
     direction 1 -4.48893e-011 -1.24632e-025   
     length 0.387152   
     axis 7.95256e-014 90 90   XYZ
    dof rx
    limits (0.0 90.0)
  end
  begin
     id 23
     name lthumb
     direction 0.707107 -6.35013e-011 0.707107   
     length 0.555875   
     axis -90 45 2.85299e-015   XYZ
    dof rx rz
    limits (-45.0 45.0)
           (-45.0 45.0)
  end
  begin
     id 24 
     name rclavicle
     direction -0.950396 0.30392 0.0661859   
     length 3.70894  
     axis 0 0 0   XYZ 
    dof ry rz
    limits (-10.0 20.0)
           (-20.0 0.0)
  end
  begin
     id 25 
     name rhumerus
     direction -1 -4.48957e-011 -2.96677e-027  
     length 4.76508   
     axis 180 30 90   XYZ
    dof rx ry rz
    limits (-90.0 60.0)
           (-90.0 90.0)
           (-90.0 90.0)
  end
  begin
     id 26 
     name rradius
     direction -1 -4.48974e-011 -1.44501e-026   
     length 2.78902   
     axis 180 30 90   XYZ
    dof rx
    limits (-10.0 170.0)
  end
  begin
     id 27 
     name rwrist
     direction -1 -4.48978e-011 -3.11579e-026   
     length 1.39451   
     axis 2.00652e-014 -90 -90   XYZ
    dof ry
    limits (-180.0 0.0)
  end
  begin
     id 28
     name rhand
     direction -1 -4.48956e-011 -6.23158e-026   
     length 0.721303   
     axis 3.97628e-014 -90 -90   XYZ
    dof rx rz
    limits (-90.0 90.0)
           (-45.0 45.0)
  end
  begin
     id 29
     name rfingers
     direction -1 -4.4899e-011 -1.24632e-025   
     length 0.581533   
     axis 7.95256e-014 -90 -90   XYZ
    dof rx
    limits (0.0 90.0)
  end
  begin
     id 30
     name rthumb
     direction -0.707107 -6.34911e-011 0.707107   
     length 0.834968   
     axis -90 -45 -2.85299e-015   XYZ
    dof rx rz
    limits (-45.0 45.0)
           (-45.0 45.0)
  end
:hierarchy
  begin
    root lhipjoint rhipjoint lowerback
    lhipjoint lfemur
    lfemur ltibia
    ltibia lfoot
    lfoot ltoes
    rhipjoint rfemur
    rfemur rtibia
    rtibia rfoot
    rfoot rtoes
    lowerback upperback
    upperback thorax
    thorax lowerneck lclavicle rclavicle
    lowerneck upperneck
    upperneck head
    lclavicle lhumerus
    lhumerus lradius
    lradius lwrist
    lwrist lhand lthumb
    lhand lfingers
    rclavicle rhumerus
    rhumerus rradius
    rradius rwrist
    rwrist rhand rthumb
    rhand rfingers
  end

#!OML:ASF I:\salsa\salsa 7_09\Patient 1\Session 1\dancerfemale.ASF
:FULLY-SPECIFIED
:DEGREES
1
root 25.4114 15.9144 -1.5276 -0.945121 -80.6371 6.1837
lowerback -5.04672 1.55784 -6.65163
upperback -4.2775 2.20979 0.125588
thorax -1.86813 1.23554 3.92701
lowerneck 0.999835 -5.69036 -13.3158
upperneck 5.43243 -9.65035 25.1148
head 3.30824 -4.81173 9.88458
rclavicle 1.45113e-014 2.38542e-015
rhumerus -45.7572 -37.8698 -67.1093
rradius 25.8573
rwrist 12.3268
rhand 19.4056 35.5424
rfingers 7.12502
rthumb 43.9809 11.6524
lclavicle 1.45113e-014 2.38542e-015
lhumerus -52.5294 41.0826 61.0389
lradius 46.8131
lwrist 23.8346
lhand -12.5842 36.7354
lfingers 7.12502
lthumb 13.494 66.2782
rfemur -8.57905 0.197678 18.2775
rtibia 22.6662
rfoot -24.6075 -14.3855
rtoes -14.9546
lfemur -14.5597 -2.20515 -18.9098
ltibia 33.2854
lfoot -25.5313 2.20011
ltoes -28.3342
2
root 25.4118 15.9149 -1.52335 -0.75296 -80.6489 6.03921
lowerback -5.0088 1.59544 -6.50786
upperback -4.31538 2.24931 0.0702427
thorax -1.92388 1.25305 3.78786
lowerneck 0.869477 -5.69119 -13.3196
upperneck 5.63734 -9.67925 25.0889
head 3.39453 -4.81017 9.87121
rclavicle 7.00716e-015 -1.33186e-014
rhumerus -45.792 -37.762 -67.3572
rradius 25.963
rwrist 12.5698
rhand 19.3528 35.4156
rfingers 7.12502
rthumb 43.9317 11.5073
lclavicle 7.00716e-015 -1.33186e-014
lhumerus -51.9867 40.3442 62.0543
lradius 46.2826
lwrist 22.1478
lhand -8.54993 38.7004
lfingers 7.12502
lthumb 17.3796 67.9434
rfemur -8.63147 0.0968358 18.2813
rtibia 22.6583
rfoot -24.5516 -14.3187
rtoes -14.9149
lfemur -14.6223 -2.36613 -18.9047
ltibia 33.3216
lfoot -25.5675 2.37036
ltoes -28.1192
3
root 25.4122 15.9149 -1.51626 -0.471641 -80.7069 5.8333
lowerback -5.03169 1.62029 -6.30833
upperback -4.34085 2.27522 0.0301966
thorax -1.92886 1.26064 3.63549
lowerneck 0.524762 -5.5913 -13.6048
upperneck 5.98733 -9.59576 25.2915
head 3.56351 -4.7376 9.99692
rclavicle 1.64494e-014 5.1684e-015
rhumerus -45.7281 -37.7327 -67.5539
rradius 26.0355
rwrist 12.9187
rhand 19.3557 35.5525
rfingers 7.12502
rthumb 43.9344 11.6452
lclavicle 1.64494e-014 5.1684e-015
lhumerus -51.4979 39.7461 62.9472
lradius 45.6617
lwrist 20.2867
lhand -4.06721 40.2609
lfingers 7.12502
lthumb 21.6894 69.0659
rfemur -8.72848 0.0133547 18.2837
rtibia 22.653
rfoot -24.4949 -14.219
rtoes -14.8728
lfemur -14.7226 -2.39602 -18.9
ltibia 33.3525
lfoot -25.5884 2.47723
ltoes -28.1171
4
root 25.4136 15.9153 -1.51079 -0.231858 -80.7526 5.65197
lowerback -5.00015 1.61082 -6.09766
upperback -4.37948 2.25061 -0.0145041
thorax -1.9716 1.24388 3.46886
lowerneck 0.273293 -5.44583 -13.7611
upperneck 6.27237 -9.42368 25.341
head 3.66347 -4.62853 10.0535
rclavicle 4.39563e-014 2.20651e-014
rhumerus -45.6405 -37.6735 -67.8089
rradius 26.1515
rwrist 13.2069
rhand 19.3923 35.676
rfingers 7.12502
rthumb 43.9686 11.7814
lclavicle 4.39563e-014 2.20651e-014
lhumerus -51.1872 39.2661 63.5907
lradius 45.1312
lwrist 18.631
lhand 0.719319 41.5016
lfingers 7.12502
lthumb 26.2792 69.7015
rfemur -8.80004 0.00917388 18.2937
rtibia 22.6337
rfoot -24.4747 -14.1868
rtoes -14.8675
lfemur -14.7965 -2.42566 -18.8872
ltibia 33.3719
lfoot -25.591 2.52046
ltoes -28.145
5
root 25.4116 15.9147 -1.51373 -0.301878 -80.7577 5.66525
lowerback -4.86281 1.57406 -6.0398
upperback -4.39581 2.18971 -0.0436849
thorax -2.0547 1.21427 3.40001
lowerneck 0.191648 -5.29868 -13.7443
upperneck 6.42301 -9.22322 25.2472
head 3.67226 -4.51941 10.0311
rclavicle -3.01407e-014 2.94201e-014
rhumerus -45.5042 -37.5235 -68.1591
rradius 26.2663
rwrist 13.3393
rhand 19.4171 35.4248
rfingers 7.12502
rthumb 43.9917 11.5388
lclavicle -3.01407e-014 2.94201e-014
lhumerus -50.9038 38.736 64.264
lradius 44.6714
lwrist 16.9245
lhand 5.79223 42.3632
lfingers 7.12502
lthumb 31.1253 69.7407
rfemur -8.70346 0.167587 18.3261
rtibia 22.5984
rfoot -24.5195 -14.362
rtoes -14.7494
lfemur -14.7138 -2.44106 -18.8656
ltibia 33.3842
lfoot -25.6068 2.47884
ltoes -28.1175
6
root 25.4046 15.9133 -1.52097 -0.232672 -80.7074 5.50859
lowerback -4.76132 1.49801 -6.02347
upperback -4.3928 2.08186 -0.0416152
thorax -2.09621 1.16133 3.3876
lowerneck 0.111344 -5.13586 -13.7653
upperneck 6.59166 -9.00973 25.2011
head 3.68746 -4.4041 10.0346
rclavicle 2.23136e-014 7.55382e-015
rhumerus -45.2984 -37.3671 -68.4856
rradius 26.2701
rwrist 13.5102
rhand 19.5744 35.1562
rfingers 7.12502
rthumb 44.1384 11.3251
lclavicle 2.23136e-014 7.55382e-015
lhumerus -50.6025 38.215 65.0096
lradius 44.1247
lwrist 14.7619
lhand 17.8179 45.0516
lfingers 7.12502
lthumb 42.4971 69.4729
rfemur -8.52571 0.353226 18.4199
rtibia 22.5474
rfoot -24.597 -14.6343
rtoes -14.3213
lfemur -14.5928 -2.31647 -18.7892
ltibia 33.39
lfoot -25.6201 2.29193
ltoes -28.151
7
root 25.3999 15.9141 -1.5231 0.080696 -80.6626 5.20205
lowerback -4.70558 1.43851 -5.88832
upperback -4.43613 1.99228 -0.0565094
thorax -2.15651 1.11491 3.29227
lowerneck 0.00108851 -4.96264 -13.7613
upperneck 6.77107 -8.77685 25.1255
head 3.7046 -4.27647 10.0232
rclavicle 5.01434e-014 -3.57812e-015
rhumerus -45.0992 -37.2204 -68.7624
rradius 26.2114
rwrist 13.6528
rhand 19.7802 35.1549
rfingers 7.12502
rthumb 44.3303 11.3963
lclavicle 5.01434e-014 -3.57812e-015
lhumerus -50.2858 37.6428 65.8352
lradius 43.4876
lwrist 12.0515
lhand 15.5585 41.9824
lfingers 7.12502
lthumb 40.3771 67.0935
rfemur -8.4705 0.412583 18.5044
rtibia 22.4919
rfoot -24.6063 -14.7671
rtoes -14.1755
lfemur -14.5991 -2.12649 -18.706
ltibia 33.3842
lfoot -25.5858 2.06774
ltoes -28.257
8
root 25.3975 15.9162 -1.52059 0.120141 -80.6458 5.21043
lowerback -4.61765 1.41905 -5.74727
upperback -4.51777 1.95116 -0.0984129
thorax -2.27878 1.09398 3.1651
lowerneck -0.237208 -4.77851 -13.6777
upperneck 7.08341 -8.5269 24.9153
head 3.76989 -4.12664 9.94708
rclavicle 3.80176e-015 -8.34896e-015
rhumerus -44.9672 -36.9418 -69.0858
rradius 26.2681
rwrist 13.489
rhand 19.7831 35.2178
rfingers 7.12502
rthumb 44.3329 11.4602
lclavicle 3.80176e-015 -8.34896e-015
lhumerus -50.0421 37.0814 66.5466
lradius 42.9473
lwrist 9.72299
lhand 13.2378 39.6038
lfingers 7.12502
lthumb 38.1904 65.351
rfemur -8.47551 0.378944 18.4961
rtibia 22.4295
rfoot -24.5502 -14.7847
rtoes -14.3826
lfemur -14.6496 -1.97699 -18.7068
ltibia 33.3743
lfoot -25.5655 1.90859
ltoes -28.2806
9
root 25.3943 15.9176 -1.51718 0.174054 -80.604 5.19192
lowerback -4.55859 1.42584 -5.61311
upperback -4.57593 1.94872 -0.141628
thorax -2.36465 1.09108 3.04253
lowerneck -0.491579 -4.57546 -13.4334
upperneck 7.39651 -8.22845 24.5221
head 3.81456 -3.9501 9.77707
rclavicle 7.59357e-014 6.36111e-015
rhumerus -44.8741 -36.6303 -69.4273
rradius 26.4823
rwrist 13.0594
rhand 19.9437 35.1168
rfingers 7.12502
rthumb 44.4826 11.4163
lclavicle 7.59357e-014 6.36111e-015
lhumerus -49.7521 36.494 67.2676
lradius 42.436
lwrist 7.54144
lhand 10.7131 37.5076
lfingers 7.12502
lthumb 35.8024 63.8724
rfemur -8.46245 0.285488 18.484
rtibia 22.3677
rfoot -24.5036 -14.7862
rtoes -14.4474
lfemur -14.6756 -1.9397 -18.7131
ltibia 33.3657
lfoot -25.6115 1.81726
ltoes -28.2692
10
root 25.391 15.9193 -1.51332 0.771885 -80.526 4.6529
lowerback -4.57203 1.443 -5.39994
upperback -4.62345 1.9638 -0.157735
thorax -2.3981 1.09353 2.90648
lowerneck -0.616144 -4.30117 -13.0715
upperneck 7.4516 -7.77837 24.0273
head 3.72507 -3.71402 9.55788
rclavicle 2.80783e-015 7.55382e-015
rhumerus -44.7564 -36.42 -69.6978
rradius 26.6812
rwrist 12.6211
rhand 20.3879 34.8234
rfingers 7.12502
rthumb 44.8962 11.2831
lclavicle 2.80783e-015 7.55382e-015
lhumerus -49.4122 35.9209 68.0099
lradius 41.9092
lwrist 5.27313
lhand 8.23512 35.4518
lfingers 7.12502
lthumb 33.4505 62.3559
rfemur -8.48029 0.162942 18.5683
rtibia 22.3149
rfoot -24.4752 -14.7916
rtoes -14.5711
lfemur -14.7387 -1.99323 -18.6192
ltibia 33.3555
lfoot -25.6235 1.74244
ltoes -28.3539
11
root 25.3878 15.9213 -1.50955 1.26975 -80.4068 4.25773
lowerback -4.62304 1.44734 -5.24524
upperback -4.68802 1.96485 -0.144135
thorax -2.43076 1.09107 2.83441
lowerneck -0.804179 -3.94461 -12.7189
upperneck 7.53058 -7.20713 23.4989
head 3.63388 -3.41408 9.33562
rclavicle -1.11319e-014 -1.98785e-015
rhumerus -44.6163 -36.1596 -69.9354
rradius 26.8153
rwrist 12.1335
rhand 20.6174 34.5773
rfingers 7.12502
rthumb 45.1098 11.1211
lclavicle -1.11319e-014 -1.98785e-015
lhumerus -49.0592 35.3364 68.8369
lradius 41.3734
lwrist 2.85704
lhand 5.51114 33.6369
lfingers 7.12502
lthumb 30.8574 61.0654
rfemur -8.52901 0.0207759 18.6318
rtibia 22.2528
rfoot -24.4556 -14.8067
rtoes -14.8567
lfemur -14.8618 -2.0999 -18.5399
ltibia 33.3461
lfoot -25.5672 1.65755
ltoes -28.2863
12
root 25.3854 15.9231 -1.50623 1.23629 -80.2531 4.3807
lowerback -4.65184 1.51874 -5.20854
upperback -4.73293 2.05741 -0.174852
thorax -2.46691 1.13686 2.78375
lowerneck -1.05656 -3.57533 -12.1677
upperneck 7.64531 -6.6192 22.8621
head 3.55767 -3.09819 9.03833
rclavicle 5.76724e-014 -6.36111e-015
rhumerus -44.5571 -36.0575 -70.0796
rradius 26.994
rwrist 11.6022
rhand 20.9288 34.3474
rfingers 7.12502
rthumb 45.3993 11.0069
lclavicle 5.76724e-014 -6.36111e-015
lhumerus -48.514 34.5845 69.8677
lradius 40.7983
lwrist 0.248615
lhand 2.10181 32.3748
lfingers 7.12502
lthumb 27.602 60.3704
rfemur -8.54493 -0.166473 18.5968
rtibia 22.1712
rfoot -24.414 -14.8144
rtoes -14.9796
lfemur -14.966 -2.22793 -18.5603
ltibia 33.3396
lfoot -25.521 1.58262
ltoes -27.9953
13
root 25.3825 15.9243 -1.50287 1.26358 -80.0457 4.36712
lowerback -4.62667 1.66323 -5.1966
upperback -4.74169 2.24786 -0.198898
thorax -2.5053 1.23261 2.75434
lowerneck -1.21758 -3.14153 -11.3695
upperneck 7.56068 -5.89858 21.9909
head 3.37874 -2.72665 8.62054
rclavicle -1.66234e-014 7.95139e-016
rhumerus -44.6278 -36.1653 -70.0199
rradius 27.2367
rwrist 11.173
rhand 21.5226 34.0848
rfingers 7.12502
rthumb 45.9508 10.9698
lclavicle -1.66234e-014 7.95139e-016
lhumerus -47.8918 33.7946 70.9315
lradius 40.2323
lwrist -2.01911
lhand -0.976145 31.3658
lfingers 7.12502
lthumb 24.6551 59.7976
rfemur -8.47275 -0.388139 18.5831
rtibia 22.0927
rfoot -24.3745 -14.838
rtoes -14.919
lfemur -14.9857 -2.3035 -18.5624
ltibia 33.3239
lfoot -25.4796 1.43218
ltoes -27.6889
